<!DOCTYPE svg PUBLIC "-//W3C//DTD SVG 1.1//EN" "http://www.w3.org/Graphics/SVG/1.1/DTD/svg11.dtd">
<!-- Uploaded to: SVG Repo, www.svgrepo.com, Transformed by: SVG Repo Mixer Tools -->
<svg fill="#793b37" height="189px" width="189px" version="1.1" id="Capa_1" xmlns="http://www.w3.org/2000/svg" xmlns:xlink="http://www.w3.org/1999/xlink" viewBox="0 0 57 57" xml:space="preserve" stroke="#793b37" stroke-width="0.45600000000000007">
<g id="SVGRepo_bgCarrier" stroke-width="0"/>
<g id="SVGRepo_tracerCarrier" stroke-linecap="round" stroke-linejoin="round"/>
<g id="SVGRepo_iconCarrier"> <g> <g> <path d="M56.21,9.022l-14-3C42.141,6.007,42.07,6,42,6h-5.132c-0.296,0-0.576,0.131-0.767,0.357 c-0.19,0.227-0.27,0.526-0.218,0.817C35.961,7.61,36,8.056,36,8.5c0,4.136-3.364,7.5-7.5,7.5S21,12.636,21,8.5 c0-0.444,0.039-0.89,0.116-1.325c0.052-0.291-0.028-0.59-0.218-0.817C20.708,6.131,20.428,6,20.132,6H14 c-0.076,0-0.151,0.009-0.225,0.025l-13,3c-0.515,0.119-0.849,0.619-0.761,1.14l2.182,13C2.277,23.647,2.694,24,3.182,24h8.412 l1.408,26.054C13.03,50.585,13.469,51,14,51h29c0.531,0,0.97-0.416,0.999-0.946L45.407,24h8.412c0.488,0,0.905-0.353,0.986-0.834 l2.182-13C57.075,9.638,56.733,9.134,56.21,9.022z M52.972,22H44.46c-0.531,0-0.97,0.416-0.999,0.946L42.053,49H14.947 l-1.408-26.054C13.51,22.416,13.072,22,12.541,22H4.028L2.142,10.763L14.114,8h4.899C19.005,8.167,19,8.334,19,8.5 c0,5.238,4.262,9.5,9.5,9.5S38,13.738,38,8.5c0-0.167-0.004-0.333-0.013-0.5h3.907l12.961,2.777L52.972,22z"/> <path d="M34.825,27.502l-3.751-0.545l-1.677-3.399c-0.337-0.683-1.457-0.683-1.794,0l-1.677,3.399l-3.751,0.545 c-0.377,0.055-0.69,0.319-0.808,0.681s-0.02,0.759,0.253,1.025l2.714,2.646l-0.641,3.736c-0.064,0.375,0.09,0.754,0.398,0.978 c0.309,0.224,0.717,0.253,1.053,0.076L28.5,34.88l3.355,1.764c0.147,0.077,0.306,0.115,0.465,0.115 c0.207,0,0.414-0.064,0.588-0.191c0.308-0.224,0.462-0.603,0.398-0.978l-0.641-3.736l2.714-2.646 c0.272-0.266,0.371-0.663,0.253-1.025S35.202,27.556,34.825,27.502z M30.893,30.789c-0.235,0.229-0.343,0.56-0.288,0.885 l0.388,2.257l-2.027-1.066C28.82,32.788,28.66,32.75,28.5,32.75s-0.32,0.038-0.465,0.115l-2.027,1.066l0.388-2.257 c0.056-0.324-0.052-0.655-0.288-0.885l-1.64-1.599l2.266-0.329c0.326-0.047,0.607-0.252,0.753-0.547L28.5,26.26l1.013,2.053 c0.146,0.295,0.427,0.5,0.753,0.547l2.266,0.329L30.893,30.789z"/> </g> </g> </g>
</svg>